<svg xmlns="http://www.w3.org/2000/svg" viewBox="0 0 24 24">
    <path style="text-indent:0;text-align:start;line-height:normal;text-transform:none;block-progression:tb;-inkscape-font-specification:Sans" d="M 5.3125 2 C 4.4902778 2 3.5996015 2.2949306 2.96875 3 C 2.3378985 3.7050694 2 4.7333333 2 6 C 2 6.9833333 2.4663923 7.8131748 3 8.46875 C 3.2464012 8.7714715 3.5092302 9.0209304 3.78125 9.25 C 3.6763467 9.374591 3.5618852 9.5346598 3.4375 9.71875 C 2.7072389 10.799536 2.03125 12.522826 2.03125 15 L 2.03125 15.4375 L 2.375 15.75 C 2.5590176 15.907729 3.3848877 16.817245 4.34375 17.65625 C 5.1855228 18.392801 6.2213854 19.062297 7.40625 19.375 C 7.7518372 19.935999 8.1146772 20.541523 8.78125 21.03125 C 9.5642996 21.606552 10.637 21.96875 12 21.96875 C 13.363 21.96875 14.431521 21.625688 15.21875 21.03125 C 15.886878 20.526745 16.27821 19.883769 16.625 19.28125 C 17.786717 18.971512 18.821105 18.301304 19.65625 17.59375 C 20.616024 16.780608 21.420599 15.925201 21.625 15.75 L 21.96875 15.4375 L 21.96875 15 C 21.96875 12.568889 21.287653 10.86898 20.5625 9.78125 C 20.427405 9.578607 20.300018 9.4178754 20.1875 9.28125 C 20.471889 9.0460319 20.743397 8.7840045 21 8.46875 C 21.533608 7.8131748 22 6.9833333 22 6 C 22 4.7333333 21.662102 3.7050694 21.03125 3 C 20.400398 2.2949306 19.509722 2 18.6875 2 C 18.311833 2 18.102022 2.0850781 17.78125 2.1875 C 17.460478 2.2899219 17.1035 2.4093286 16.75 2.59375 C 16.3965 2.7781714 16.032448 3.0001433 15.71875 3.3125 C 15.692377 3.3387601 15.682405 3.3779498 15.65625 3.40625 C 15.087036 3.1789513 14.479005 3.03125 13.8125 3.03125 C 12.893767 3.03125 12.340833 3.2154955 12 3.3125 C 11.659167 3.2154955 11.106233 3.03125 10.1875 3.03125 C 9.5289834 3.03125 8.9047506 3.1547561 8.34375 3.375 C 8.3230408 3.3529972 8.3020706 3.3332316 8.28125 3.3125 C 7.9675523 3.0001433 7.6034995 2.7781714 7.25 2.59375 C 6.8965005 2.4093286 6.5395218 2.2899219 6.21875 2.1875 C 5.8979782 2.0850781 5.6881667 2 5.3125 2 z M 5.28125 4 C 5.3014055 4.0103821 5.4647976 4.0425977 5.625 4.09375 C 5.8386032 4.1619531 6.0784995 4.2529214 6.3125 4.375 C 6.4208973 4.4315511 6.506573 4.5004188 6.59375 4.5625 C 6.5218381 4.6360168 6.4428361 4.7035667 6.375 4.78125 C 5.7038238 5.549855 5.2174691 6.5069548 4.875 7.5625 C 4.7560561 7.4526733 4.6355643 7.3469076 4.53125 7.21875 C 4.1898577 6.7993252 4 6.3166667 4 6 C 4 5.0666667 4.2183515 4.5886806 4.4375 4.34375 C 4.6500327 4.1062135 4.9206789 4.0058281 5.28125 4 z M 18.6875 4 C 19.065278 4 19.343352 4.098819 19.5625 4.34375 C 19.781648 4.5886806 20 5.0666667 20 6 C 20 6.3166667 19.810142 6.7993252 19.46875 7.21875 C 19.369177 7.3410822 19.238332 7.4254264 19.125 7.53125 C 18.792078 6.5152624 18.314911 5.5773972 17.65625 4.8125 C 17.579194 4.7230159 17.489012 4.6466983 17.40625 4.5625 C 17.493427 4.5004188 17.579103 4.4315511 17.6875 4.375 C 17.9215 4.2529214 18.161397 4.1619531 18.375 4.09375 C 18.513842 4.049418 18.638588 4.0129862 18.6875 4 z M 10.90625 5.03125 C 11.207087 5.0876665 11.440606 5.1726515 11.75 5.25 L 12 5.3125 L 12.25 5.25 C 12.559394 5.1726515 12.792913 5.0876665 13.09375 5.03125 C 13.046105 5.177587 13 5.3377664 13 5.5 C 13 6.3284271 13.671573 7 14.5 7 C 15.190356 7 15.762867 6.5411205 15.9375 5.90625 C 16.004975 5.9751925 16.090597 6.0175075 16.15625 6.09375 C 16.60111 6.6103615 16.943962 7.3250136 17.21875 8.15625 L 13 9 L 13 11 C 13 11.686188 13.46439 11.908158 14.09375 11.96875 C 14.546548 12.889052 15 14.269509 15 16 L 17 16 C 17 14.084804 16.497689 12.519823 15.96875 11.375 C 16.439242 11.035498 16.849181 10.60599 16.96875 10.21875 L 18.15625 9.96875 C 18.163451 9.9738723 18.179525 9.9628594 18.1875 9.96875 C 18.345237 10.085252 18.578182 10.304773 18.9375 10.84375 C 18.978816 10.905725 19.021631 10.993119 19.0625 11.0625 C 18.442198 11.246469 18 11.82 18 12.5 C 18 13.328427 18.671573 14 19.5 14 C 19.638071 14 19.779276 13.972427 19.90625 13.9375 C 19.930367 14.164992 19.958668 14.37607 19.96875 14.625 C 19.807974 14.779414 19.641942 14.949664 19.46875 15.125 C 19.327185 15.04821 19.172369 15 19 15 C 18.447715 15 18 15.447715 18 16 C 18 16.138071 18.043147 16.255362 18.09375 16.375 C 17.329968 16.970516 16.4952 17.44265 15.875 17.53125 L 15.375 17.59375 L 15.125 18.03125 C 14.798396 18.6378 14.500271 19.138188 14.0625 19.46875 C 13.624729 19.799312 13.037 20.03125 12 20.03125 C 10.963 20.03125 10.37945 19.793448 9.9375 19.46875 C 9.4955496 19.144052 9.1733236 18.658733 8.84375 18.09375 L 8.59375 17.6875 L 8.125 17.625 C 7.5071537 17.536736 6.6786096 17.035792 5.90625 16.40625 C 5.9637619 16.280041 6 16.147745 6 16 C 6 15.447715 5.5522847 15 5 15 C 4.8276309 15 4.6728154 15.04821 4.53125 15.125 C 4.3622237 14.951036 4.1883783 14.778003 4.03125 14.625 C 4.0410111 14.375986 4.0704399 14.164589 4.09375 13.9375 C 4.2207241 13.972427 4.3619288 14 4.5 14 C 5.3284271 14 6 13.328427 6 12.5 C 6 11.82 5.5578023 11.246469 4.9375 11.0625 C 4.9842024 10.982463 5.0153176 10.88233 5.0625 10.8125 C 5.4159225 10.289434 5.661927 10.081362 5.8125 9.96875 L 6.96875 10.1875 C 7.079652 10.598089 7.5240479 11.051836 8.03125 11.40625 C 7.5065901 12.549161 7 14.098727 7 16 L 9 16 C 9 14.269509 9.4534524 12.889052 9.90625 11.96875 C 10.521383 11.899073 11 11.664459 11 11 L 11 9 L 6.75 8.15625 C 7.0276072 7.2985853 7.3954664 6.575857 7.84375 6.0625 C 7.9108815 5.9856236 7.9934212 5.9441615 8.0625 5.875 C 8.2272978 6.5244564 8.7992887 7 9.5 7 C 10.328427 7 11 6.3284271 11 5.5 C 11 5.3377664 10.953895 5.177587 10.90625 5.03125 z M 12 7 C 11.447715 7 11 7.4477153 11 8 C 11 8.5522847 11.447715 9 12 9 C 12.552285 9 13 8.5522847 13 8 C 13 7.4477153 12.552285 7 12 7 z M 12 14 C 10.7375 13.9625 9.5 14.1875 9.5 14.6875 L 9.5 15.40625 C 9.5 15.40625 9.8125 15.7 10.3125 16 C 10.5125 15.8 10.8 15.70625 11 15.90625 C 11.1 16.00625 11.1 16.8 11 17 C 11.5 17.3 11.9 18 12 18 C 12.1 18 12.5 17.3 13 17 C 12.8 16.8 12.89375 16.10625 13.09375 15.90625 C 13.29375 15.70625 13.6125 15.8 13.8125 16 L 13.90625 16.09375 C 14.30625 15.79375 14.59375 15.5125 14.59375 15.3125 L 14.59375 14.90625 C 14.54375 14.35625 13.2625 14.0375 12 14 z"/>
</svg>